<svg xmlns="http://www.w3.org/2000/svg" viewBox="0 0 256 256"><defs><linearGradient id="g" x1="0" x2="1" y1="0" y2="1"><stop offset="0" stop-color="#7cf0a8"/><stop offset="1" stop-color="#d3b86e"/></linearGradient></defs><rect width="256" height="256" rx="64" fill="#0b110d"/><circle cx="128" cy="128" r="78" fill="none" stroke="url(#g)" stroke-width="28"/><path d="M128 50c43 0 78 35 78 78 0 22-9 42-23 56l-26-26c8-8 13-18 13-30 0-23-19-42-42-42s-42 19-42 42 19 42 42 42c11 0 21-4 29-11l26 26c-14 13-33 21-55 21-43 0-78-35-78-78s35-78 78-78Z" fill="url(#g)" opacity=".35"/><circle cx="128" cy="128" r="24" fill="url(#g)"/></svg>